<svg width="398" height="56" viewBox="0 0 398 56" fill="none" xmlns="http://www.w3.org/2000/svg">
<mask id="path-1-inside-1_285_107" fill="white">
<path fill-rule="evenodd" clip-rule="evenodd" d="M295.839 50.5436C289.585 50.8258 283.357 50.0133 277.411 48.1773C269.128 45.6191 267.008 35.6788 271.573 28.3084L273.978 24.4248C280.58 13.7659 272.914 0 260.376 0H16C7.16344 0 0 7.16344 0 16V40C0 48.8366 7.16345 56 16 56H382C390.837 56 398 48.8366 398 40V16C398 7.16344 390.837 0 382 0H329.908C316.626 0 309.127 15.2481 317.236 25.7678L317.616 26.2618C322.931 33.157 321.794 43.3129 313.735 46.6066C308.071 48.9217 302.025 50.2644 295.839 50.5436Z"/>
</mask>
<path fill-rule="evenodd" clip-rule="evenodd" d="M295.839 50.5436C289.585 50.8258 283.357 50.0133 277.411 48.1773C269.128 45.6191 267.008 35.6788 271.573 28.3084L273.978 24.4248C280.58 13.7659 272.914 0 260.376 0H16C7.16344 0 0 7.16344 0 16V40C0 48.8366 7.16345 56 16 56H382C390.837 56 398 48.8366 398 40V16C398 7.16344 390.837 0 382 0H329.908C316.626 0 309.127 15.2481 317.236 25.7678L317.616 26.2618C322.931 33.157 321.794 43.3129 313.735 46.6066C308.071 48.9217 302.025 50.2644 295.839 50.5436Z" fill="#F8F8F7"/>
<path d="M295.839 50.5436L295.817 50.0441L295.817 50.0441L295.839 50.5436ZM317.616 26.2618L317.22 26.5671L317.616 26.2618ZM313.735 46.6066L313.546 46.1437L313.735 46.6066ZM277.411 48.1773L277.264 48.655L277.411 48.1773ZM271.573 28.3084L271.148 28.0451L271.573 28.3084ZM277.264 48.655C283.263 50.5078 289.549 51.328 295.862 51.0431L295.817 50.0441C289.621 50.3237 283.45 49.5188 277.559 47.6996L277.264 48.655ZM273.553 24.1616L271.148 28.0451L271.998 28.5716L274.403 24.6881L273.553 24.1616ZM16 0.5H260.376V-0.5H16V0.5ZM0.5 40V16H-0.5V40H0.5ZM382 55.5H16V56.5H382V55.5ZM397.5 16V40H398.5V16H397.5ZM329.908 0.5H382V-0.5H329.908V0.5ZM318.012 25.9566L317.632 25.4626L316.84 26.0731L317.22 26.5671L318.012 25.9566ZM295.862 51.0431C302.105 50.7613 308.207 49.4061 313.924 47.0694L313.546 46.1437C307.934 48.4373 301.945 49.7675 295.817 50.0441L295.862 51.0431ZM317.22 26.5671C319.797 29.9098 320.801 34.0337 320.197 37.7036C319.595 41.3627 317.398 44.5693 313.546 46.1437L313.924 47.0694C318.131 45.3503 320.532 41.832 321.184 37.866C321.835 33.9107 320.751 29.509 318.012 25.9566L317.22 26.5671ZM329.908 -0.5C316.211 -0.5 308.478 15.2246 316.84 26.0731L317.632 25.4626C309.777 15.2716 317.041 0.5 329.908 0.5V-0.5ZM398.5 16C398.5 6.8873 391.113 -0.5 382 -0.5V0.5C390.56 0.5 397.5 7.43959 397.5 16H398.5ZM-0.5 40C-0.5 49.1127 6.8873 56.5 16 56.5V55.5C7.43959 55.5 0.5 48.5604 0.5 40H-0.5ZM16 -0.5C6.8873 -0.5 -0.5 6.8873 -0.5 16H0.5C0.5 7.43959 7.43959 0.5 16 0.5V-0.5ZM274.403 24.6881C281.211 13.6961 273.305 -0.5 260.376 -0.5V0.5C272.522 0.5 279.948 13.8357 273.553 24.1616L274.403 24.6881ZM382 56.5C391.113 56.5 398.5 49.1127 398.5 40H397.5C397.5 48.5604 390.56 55.5 382 55.5V56.5ZM277.559 47.6996C273.598 46.4763 271.112 43.4957 270.157 39.9184C269.199 36.3311 269.785 32.1448 271.998 28.5716L271.148 28.0451C268.796 31.8424 268.159 36.3114 269.191 40.1764C270.225 44.0514 272.941 47.3201 277.264 48.655L277.559 47.6996Z" fill="#E0E0DC" mask="url(#path-1-inside-1_285_107)"/>
</svg>
