<svg width="398" height="56" viewBox="0 0 398 56" fill="none" xmlns="http://www.w3.org/2000/svg">
<mask id="path-1-inside-1_376_272" fill="white">
<path fill-rule="evenodd" clip-rule="evenodd" d="M102.824 49.6175C96.5659 49.4554 90.4108 48.2031 84.6108 45.95C76.5296 42.8106 75.2036 32.6291 80.2799 25.6011V25.6011C87.9227 15.02 80.5302 0 67.4775 0H16C7.16344 0 0 7.16344 0 16V40C0 48.8366 7.16345 56 16 56H382C390.837 56 398 48.8366 398 40V16C398 7.16344 390.837 0 382 0H138.211C125.449 0 117.823 14.209 124.878 24.8443L126.269 26.9417C131.081 34.1965 129.226 44.2462 120.954 46.9599C115.14 48.8673 109.014 49.7778 102.824 49.6175Z"/>
</mask>
<path fill-rule="evenodd" clip-rule="evenodd" d="M102.824 49.6175C96.5659 49.4554 90.4108 48.2031 84.6108 45.95C76.5296 42.8106 75.2036 32.6291 80.2799 25.6011V25.6011C87.9227 15.02 80.5302 0 67.4775 0H16C7.16344 0 0 7.16344 0 16V40C0 48.8366 7.16345 56 16 56H382C390.837 56 398 48.8366 398 40V16C398 7.16344 390.837 0 382 0H138.211C125.449 0 117.823 14.209 124.878 24.8443L126.269 26.9417C131.081 34.1965 129.226 44.2462 120.954 46.9599C115.14 48.8673 109.014 49.7778 102.824 49.6175Z" fill="#F8F8F7"/>
<path d="M102.824 49.6175L102.811 50.1173L102.811 50.1173L102.824 49.6175ZM126.269 26.9417L125.852 27.218L126.269 26.9417ZM120.954 46.9599L120.799 46.4848L120.954 46.9599ZM84.6108 45.95L84.4298 46.416L84.6108 45.95ZM84.4298 46.416C90.2828 48.6898 96.4947 49.9537 102.811 50.1173L102.837 49.1177C96.6371 48.9571 90.5388 47.7164 84.7919 45.4839L84.4298 46.416ZM16 0.5H67.4775V-0.5H16V0.5ZM0.5 40V16H-0.5V40H0.5ZM382 55.5H16V56.5H382V55.5ZM397.5 16V40H398.5V16H397.5ZM138.211 0.5H382V-0.5H138.211V0.5ZM126.686 26.6653L125.295 24.5679L124.461 25.1207L125.852 27.218L126.686 26.6653ZM102.811 50.1173C109.059 50.2791 115.242 49.3602 121.11 47.4349L120.799 46.4848C115.038 48.3745 108.97 49.2765 102.837 49.1177L102.811 50.1173ZM125.852 27.218C128.185 30.7351 128.895 34.9199 128.032 38.5377C127.172 42.1449 124.753 45.1875 120.799 46.4848L121.11 47.4349C125.428 46.0185 128.072 42.6794 129.005 38.7697C129.935 34.8705 129.165 30.403 126.686 26.6653L125.852 27.218ZM138.211 -0.5C125.05 -0.5 117.186 14.153 124.461 25.1207L125.295 24.5679C118.46 14.265 125.848 0.5 138.211 0.5V-0.5ZM398.5 16C398.5 6.8873 391.113 -0.5 382 -0.5V0.5C390.56 0.5 397.5 7.43959 397.5 16H398.5ZM-0.5 40C-0.5 49.1127 6.8873 56.5 16 56.5V55.5C7.43959 55.5 0.5 48.5604 0.5 40H-0.5ZM16 -0.5C6.8873 -0.5 -0.5 6.8873 -0.5 16H0.5C0.5 7.43959 7.43959 0.5 16 0.5V-0.5ZM80.6852 25.8939C88.5571 14.9955 80.9545 -0.5 67.4775 -0.5V0.5C80.1058 0.5 87.2882 15.0445 79.8746 25.3084L80.6852 25.8939ZM382 56.5C391.113 56.5 398.5 49.1127 398.5 40H397.5C397.5 48.5604 390.56 55.5 382 55.5V56.5ZM84.7919 45.4839C80.9311 43.9841 78.6822 40.809 78.0029 37.1427C77.3217 33.466 78.2239 29.3015 80.6852 25.8939L79.8746 25.3084C77.2596 28.9288 76.2867 33.369 77.0196 37.3249C77.7546 41.2912 80.2093 44.7765 84.4298 46.416L84.7919 45.4839Z" fill="#E0E0DC" mask="url(#path-1-inside-1_376_272)"/>
</svg>
