<svg width="398" height="56" viewBox="0 0 398 56" fill="none" xmlns="http://www.w3.org/2000/svg">
<mask id="path-1-inside-1_383_295" fill="white">
<path fill-rule="evenodd" clip-rule="evenodd" d="M199.839 50.5436C193.585 50.8258 187.357 50.0133 181.411 48.1773C173.128 45.6191 171.008 35.6788 175.573 28.3084L177.978 24.4248C184.58 13.7659 176.914 0 164.376 0H16C7.16344 0 0 7.16344 0 16V40C0 48.8366 7.16345 56 16 56H382C390.837 56 398 48.8366 398 40V16C398 7.16344 390.837 0 382 0H233.908C220.626 0 213.127 15.2481 221.236 25.7678L221.616 26.2618C226.931 33.157 225.794 43.3129 217.735 46.6066C212.071 48.9217 206.025 50.2644 199.839 50.5436Z"/>
</mask>
<path fill-rule="evenodd" clip-rule="evenodd" d="M199.839 50.5436C193.585 50.8258 187.357 50.0133 181.411 48.1773C173.128 45.6191 171.008 35.6788 175.573 28.3084L177.978 24.4248C184.58 13.7659 176.914 0 164.376 0H16C7.16344 0 0 7.16344 0 16V40C0 48.8366 7.16345 56 16 56H382C390.837 56 398 48.8366 398 40V16C398 7.16344 390.837 0 382 0H233.908C220.626 0 213.127 15.2481 221.236 25.7678L221.616 26.2618C226.931 33.157 225.794 43.3129 217.735 46.6066C212.071 48.9217 206.025 50.2644 199.839 50.5436Z" fill="#F8F8F7"/>
<path d="M199.839 50.5436L199.862 51.0431L199.862 51.0431L199.839 50.5436ZM221.616 26.2618L221.22 26.5671L221.616 26.2618ZM217.735 46.6066L217.546 46.1438L217.735 46.6066ZM177.978 24.4248L178.403 24.6881L177.978 24.4248ZM175.573 28.3084L175.148 28.0451L175.573 28.3084ZM181.264 48.655C187.263 50.5078 193.549 51.328 199.862 51.0431L199.817 50.0441C193.621 50.3237 187.45 49.5188 181.559 47.6996L181.264 48.655ZM177.553 24.1616L175.148 28.0451L175.998 28.5716L178.403 24.6881L177.553 24.1616ZM16 0.5H164.376V-0.5H16V0.5ZM0.5 40V16H-0.5V40H0.5ZM382 55.5H16V56.5H382V55.5ZM397.5 16V40H398.5V16H397.5ZM233.908 0.5H382V-0.5H233.908V0.5ZM222.012 25.9566L221.632 25.4626L220.84 26.0731L221.22 26.5671L222.012 25.9566ZM199.862 51.0431C206.105 50.7613 212.207 49.4061 217.924 47.0694L217.546 46.1438C211.934 48.4373 205.945 49.7675 199.817 50.0441L199.862 51.0431ZM221.22 26.5671C223.797 29.9098 224.801 34.0337 224.197 37.7036C223.595 41.3627 221.398 44.5693 217.546 46.1438L217.924 47.0694C222.131 45.3503 224.532 41.832 225.184 37.866C225.835 33.9107 224.751 29.509 222.012 25.9566L221.22 26.5671ZM233.908 -0.5C220.211 -0.5 212.478 15.2246 220.84 26.0731L221.632 25.4626C213.777 15.2716 221.041 0.5 233.908 0.5V-0.5ZM398.5 16C398.5 6.8873 391.113 -0.5 382 -0.5V0.5C390.56 0.5 397.5 7.43959 397.5 16H398.5ZM-0.5 40C-0.5 49.1127 6.8873 56.5 16 56.5V55.5C7.43959 55.5 0.5 48.5604 0.5 40H-0.5ZM16 -0.5C6.8873 -0.5 -0.5 6.8873 -0.5 16H0.5C0.5 7.43959 7.43959 0.5 16 0.5V-0.5ZM178.403 24.6881C185.211 13.6961 177.305 -0.5 164.376 -0.5V0.5C176.522 0.5 183.949 13.8357 177.553 24.1616L178.403 24.6881ZM382 56.5C391.113 56.5 398.5 49.1127 398.5 40H397.5C397.5 48.5604 390.56 55.5 382 55.5V56.5ZM181.559 47.6996C177.598 46.4763 175.112 43.4957 174.157 39.9184C173.199 36.3311 173.785 32.1448 175.998 28.5716L175.148 28.0451C172.796 31.8424 172.159 36.3114 173.191 40.1764C174.225 44.0515 176.941 47.3201 181.264 48.655L181.559 47.6996Z" fill="#E0E0DC" mask="url(#path-1-inside-1_383_295)"/>
</svg>
